<svg width="16" height="16" viewBox="0 0 16 16" fill="none" xmlns="http://www.w3.org/2000/svg">
<rect width="16" height="16" rx="2" fill="#253678"/>
<path d="M8.7804 6.49111C9.01798 6.77455 9.15657 7.08165 9.26396 7.40591C9.29456 7.49762 9.25976 7.5639 9.20697 7.63549C9.03058 7.87751 8.86379 8.12662 8.6814 8.3639C8.61481 8.45088 8.60881 8.5136 8.67121 8.5994C9.29216 9.4568 9.91132 10.3142 10.5299 11.1734C10.7783 11.5177 11.026 11.8615 11.2672 12.2106C11.4304 12.4467 11.3698 12.7491 11.14 12.9077C10.909 13.0669 10.6067 13.0177 10.4345 12.7793C9.65093 11.697 8.86859 10.6148 8.09345 9.52662C7.99086 9.38224 7.94226 9.38993 7.84807 9.52307C7.10172 10.5716 6.35177 11.6166 5.60243 12.6633C5.45964 12.8621 5.30185 13.0325 5.01807 12.9893C4.6329 12.9302 4.45231 12.5195 4.68089 12.1929C5.04027 11.6811 5.40924 11.1757 5.77462 10.668C6.26298 9.98934 6.74895 9.31064 7.24091 8.63549C7.3195 8.5278 7.3195 8.44555 7.23851 8.33904C7.06512 8.11182 6.90973 7.87277 6.73635 7.64555C6.66375 7.55088 6.65415 7.46508 6.69075 7.3562C6.77654 7.09703 6.89773 6.85739 7.04412 6.62721C7.12692 6.49821 7.17551 6.49999 7.25951 6.62247C7.44849 6.89821 7.64948 7.16626 7.84087 7.44023C7.92846 7.56567 7.98846 7.60176 8.09405 7.44555C8.30643 7.12898 8.53981 6.82484 8.781 6.4923L8.7804 6.49111Z" fill="white"/>
<path d="M3.08681 4.01893C3.06761 3.65621 3.06761 3.65798 3.41378 3.73313C4.16793 3.89704 4.90287 3.86213 5.60302 3.50946C5.70322 3.45917 5.78541 3.45976 5.876 3.52366C5.9678 3.58934 6.06319 3.6497 6.15918 3.70946C6.45376 3.89408 6.45076 3.88994 6.15798 4.0923C5.69422 4.41301 5.23165 4.73432 4.77448 5.06508C4.42231 5.32011 4.34672 5.73609 4.5795 6.06213C4.82728 6.41006 5.26345 6.48402 5.62942 6.23195C6.12259 5.8923 6.61095 5.54556 7.10052 5.20059C7.21931 5.11715 7.25951 5.05207 7.3327 5.28165C7.3411 5.30769 7.3411 5.31716 7.3543 5.36272C7.44069 5.66686 7.41609 5.85621 7.18451 6.08284C6.67755 6.58106 6.46216 7.22662 6.38957 7.91834C6.37277 8.07751 6.34397 8.12426 6.17778 8.06154C5.09186 7.65798 4.24532 6.97869 3.66816 5.97396C3.31839 5.36627 3.1288 4.7142 3.08741 4.01834L3.08681 4.01893Z" fill="white"/>
<path d="M2.06449 3C2.26848 3.19645 2.44786 3.3432 2.65665 3.44615C2.76884 3.50118 2.74844 3.5929 2.74664 3.68225C2.72324 4.72367 3.02682 5.66627 3.62318 6.51184C4.25373 7.4071 5.09127 8.03255 6.1364 8.36687C6.27199 8.41006 6.33318 8.46923 6.35238 8.6071C6.37998 8.80296 6.45197 8.98876 6.55997 9.21302C5.12247 8.929 3.96275 8.2503 3.11502 7.10947C2.22168 5.90888 1.83591 4.55089 2.06449 3Z" fill="white"/>
<path d="M12.9129 4.01893C12.9321 3.65621 12.9321 3.65798 12.5859 3.73313C11.8318 3.89704 11.0968 3.86213 10.3967 3.50946C10.2965 3.45917 10.2143 3.45976 10.1237 3.52366C10.0319 3.58934 9.93652 3.6497 9.84053 3.70946C9.54595 3.89408 9.54895 3.88994 9.84173 4.0923C10.3055 4.41301 10.7681 4.73432 11.2252 5.06508C11.5774 5.32011 11.653 5.73609 11.4202 6.06213C11.1724 6.41006 10.7363 6.48402 10.3703 6.23195C9.87713 5.8923 9.38876 5.54556 8.8992 5.20059C8.78041 5.11715 8.74021 5.05207 8.66702 5.28165C8.65862 5.30769 8.65862 5.31716 8.64542 5.36272C8.55902 5.66686 8.58362 5.85621 8.81521 6.08284C9.32217 6.58106 9.53755 7.22662 9.61015 7.91834C9.62695 8.07751 9.65574 8.12426 9.82193 8.06154C10.9079 7.65798 11.7544 6.97869 12.3316 5.97396C12.6813 5.36627 12.8709 4.7142 12.9123 4.01834L12.9129 4.01893Z" fill="white"/>
<path d="M13.934 3C13.7271 3.19645 13.5453 3.3432 13.3341 3.44615C13.2207 3.50118 13.2411 3.5929 13.2429 3.68225C13.2663 4.72367 12.9585 5.66627 12.355 6.51184C11.716 7.4071 10.8677 8.03255 9.80934 8.36687C9.67195 8.41006 9.61015 8.46923 9.59035 8.6071C9.56215 8.80296 9.48956 8.98876 9.38037 9.21302C10.8365 8.929 12.0118 8.2503 12.8703 7.10947C13.7756 5.90888 14.1662 4.55089 13.9346 3H13.934Z" fill="white"/>
<path d="M10.8796 5.1639C10.861 5.19526 10.8478 5.22012 10.8316 5.2426C10.6775 5.45858 10.5215 5.67396 10.3679 5.89112C10.3127 5.96864 10.2635 5.98106 10.1795 5.91716C9.9833 5.76805 9.78172 5.62544 9.57533 5.48935C9.49074 5.43373 9.47574 5.38935 9.53633 5.30769C9.68992 5.1 9.83691 4.88816 9.9881 4.67929C10.0295 4.62189 10.0739 4.56094 10.1597 4.62308C10.3829 4.78343 10.6067 4.9426 10.8292 5.10414C10.8508 5.11893 10.864 5.14438 10.879 5.16331L10.8796 5.1639Z" fill="white"/>
<path d="M5.06006 5.1639C5.07986 5.19526 5.09365 5.22012 5.11045 5.2426C5.27124 5.45858 5.43383 5.67396 5.59402 5.89112C5.65161 5.96864 5.70321 5.98106 5.7908 5.91716C5.99539 5.76805 6.20597 5.62544 6.42076 5.48935C6.50895 5.43373 6.52455 5.38935 6.46096 5.30769C6.30077 5.1 6.14718 4.88816 5.98999 4.67929C5.94679 4.62189 5.9006 4.56094 5.8112 4.62308C5.57842 4.78343 5.34444 4.9426 5.11225 5.10414C5.08946 5.11893 5.07566 5.14438 5.06006 5.16331V5.1639Z" fill="white"/>
</svg>